<?xml version="1.0" standalone="no"?>
<!DOCTYPE svg PUBLIC "-//W3C//DTD SVG 20010904//EN"
 "http://www.w3.org/TR/2001/REC-SVG-20010904/DTD/svg10.dtd">
<svg version="1.0" xmlns="http://www.w3.org/2000/svg"
 width="400.000000pt" height="400.000000pt" viewBox="0 0 400.000000 400.000000"
 preserveAspectRatio="xMidYMid meet">
<metadata>
Created by potrace 1.14, written by Peter Selinger 2001-2017
</metadata>
<g transform="translate(0.000000,400.000000) scale(0.100000,-0.100000)"
fill="#000000" stroke="none">
<path d="M1469 2987 c-146 -42 -240 -156 -286 -349 -25 -104 -25 -429 0 -583
54 -327 178 -700 292 -882 51 -80 123 -151 164 -163 68 -19 128 16 165 95 30
65 40 106 76 326 42 259 73 360 112 367 50 9 82 -82 132 -378 50 -293 76 -365
148 -402 31 -17 42 -18 80 -8 166 44 367 484 459 1005 19 108 23 166 23 340 1
184 -2 220 -21 292 -93 349 -314 434 -694 267 -93 -41 -134 -42 -214 -7 -189
82 -334 109 -436 80z"/>
</g>
</svg>
